<svg xmlns="http://www.w3.org/2000/svg" xmlns:xlink="http://www.w3.org/1999/xlink" width="500" zoomAndPan="magnify" viewBox="0 0 375 374.999991" height="500" preserveAspectRatio="xMidYMid meet" version="1.0"><defs><clipPath id="9331ce82f7"><path d="M 187.5 0 C 83.945312 0 0 83.945312 0 187.5 C 0 291.054688 83.945312 375 187.5 375 C 291.054688 375 375 291.054688 375 187.5 C 375 83.945312 291.054688 0 187.5 0 Z M 187.5 0 " clip-rule="nonzero"/></clipPath><clipPath id="d205861acb"><path d="M 33.304688 33.304688 L 341.695312 33.304688 L 341.695312 341.695312 L 33.304688 341.695312 Z M 33.304688 33.304688 " clip-rule="nonzero"/></clipPath><clipPath id="605581b41f"><path d="M 187.5 33.304688 C 102.339844 33.304688 33.304688 102.339844 33.304688 187.5 C 33.304688 272.660156 102.339844 341.695312 187.5 341.695312 C 272.660156 341.695312 341.695312 272.660156 341.695312 187.5 C 341.695312 102.339844 272.660156 33.304688 187.5 33.304688 Z M 187.5 33.304688 " clip-rule="nonzero"/></clipPath><clipPath id="f18a54df3f"><path d="M 87 66.609375 L 292 66.609375 L 292 128 L 87 128 Z M 87 66.609375 " clip-rule="nonzero"/></clipPath><clipPath id="05a34c3cd7"><path d="M 83.328125 116 L 290 116 L 290 329.84375 L 83.328125 329.84375 Z M 83.328125 116 " clip-rule="nonzero"/></clipPath></defs><g clip-path="url(#9331ce82f7)"><rect x="-37.5" width="450" fill="#f53800" y="-37.499999" height="449.999989" fill-opacity="1"/></g><g clip-path="url(#d205861acb)"><g clip-path="url(#605581b41f)"><path fill="#ffffff" d="M 33.304688 33.304688 L 341.695312 33.304688 L 341.695312 341.695312 L 33.304688 341.695312 Z M 33.304688 33.304688 " fill-opacity="1" fill-rule="nonzero"/></g></g><g clip-path="url(#f18a54df3f)"><path fill="#f53800" d="M 189.808594 66.796875 C 129.636719 66.796875 87.707031 82.875 87.707031 97.304688 C 87.707031 111.734375 129.640625 127.8125 189.808594 127.8125 C 249.972656 127.8125 291.902344 111.730469 291.902344 97.304688 C 291.902344 82.882812 249.972656 66.796875 189.808594 66.796875 Z M 189.808594 66.796875 " fill-opacity="1" fill-rule="nonzero"/></g><g clip-path="url(#05a34c3cd7)"><path fill="#f53800" d="M 97.878906 121.035156 C 100.132812 124.378906 102.808594 127.6875 106.09375 130.667969 C 119.433594 142.847656 122.074219 162.121094 112.375 176.515625 C 108.554688 182.230469 103.789062 187.945312 98.230469 193.496094 C 93.488281 198.289062 89.785156 203.878906 87.25 210.097656 C 84.679688 216.324219 83.378906 222.917969 83.378906 229.710938 C 83.378906 241.875 87.386719 253.320312 94.675781 261.9375 C 103.335938 272.269531 119.410156 285.601562 146.941406 290.558594 C 161.164062 293.125 173.375 298.257812 183.242188 305.835938 C 192.523438 312.988281 198.671875 320.945312 201.554688 329.410156 C 206.210938 320.167969 207.28125 309.925781 204.472656 301.261719 C 198.105469 281.84375 177.140625 274.933594 168.429688 272.863281 C 160.175781 270.878906 153.550781 265.738281 150.246094 258.761719 C 137.378906 231.746094 178.984375 203.28125 204.933594 188.726562 C 210.476562 185.617188 216.6875 182.632812 224.480469 179.324219 C 272.855469 158.613281 286.632812 133.183594 289.925781 116.152344 C 270.273438 130.230469 229.15625 137.664062 189.816406 137.664062 C 155.308594 137.664062 119.449219 131.9375 97.886719 121.035156 Z M 97.878906 121.035156 " fill-opacity="1" fill-rule="nonzero"/></g></svg>